# xmcd CD database file
#
# Track frame offsets:
#	150
#	19967
#	33907
#	48694
#	62318
#	77222
#	92704
#	111744
#	127255
#	143166
#	158957
#	174119
#
# Disc length: 2599 seconds
#
# Revision: 0
# Processed by: cddbd v1.5.2PL0 Copyright (c) Steve Scherf et al.
# Submitted via: CDex 1.70beta2
#
DISCID=a40a250c
DTITLE=BOSSA - AL PRINCIPE EN BOSSA
DYEAR=2012
DGENRE=Blues
TTITLE0=AMOR AMOR
TTITLE1=ME VAS A ECHAR DE MENOS
TTITLE2=TU ME ESTAS VOLVIENDO LOCO
TTITLE3=Y QUE
TTITLE4=ME BASTA
TTITLE5=HE RENUNCIADO A TI
TTITLE6=LAGRIMAS
TTITLE7=SI ME DEJAS AHORA
TTITLE8=DESESPERADO
TTITLE9=CUANDO VAYAS CONMIGO
TTITLE10=SERA
TTITLE11=EL AMOR ACABA
EXTD=YEAR: 2012
EXTT0=
EXTT1=
EXTT2=
EXTT3=
EXTT4=
EXTT5=
EXTT6=
EXTT7=
EXTT8=
EXTT9=
EXTT10=
EXTT11=
PLAYORDER=
